<svg width="23" height="17" viewBox="0 0 23 17" fill="none" xmlns="http://www.w3.org/2000/svg">
<path fill-rule="evenodd" clip-rule="evenodd" d="M15.6583 4.73383C15.6583 7.08351 13.7851 8.96758 11.449 8.96758C9.11292 8.96758 7.23974 7.08351 7.23974 4.73383C7.23974 2.38324 9.11292 0.500977 11.449 0.500977C13.7851 0.500977 15.6583 2.38324 15.6583 4.73383ZM11.449 16.501C8.01785 16.501 5.08809 15.957 5.08809 13.7811C5.08809 11.6044 7.99904 11.0406 11.449 11.0406C14.8802 11.0406 17.81 11.5846 17.81 13.7613C17.81 15.9372 14.899 16.501 11.449 16.501ZM17.4571 4.8102C17.4571 6.00801 17.0998 7.12386 16.473 8.05148C16.4086 8.14695 16.4659 8.27573 16.5796 8.29555C16.7363 8.32257 16.8984 8.33788 17.0631 8.34238C18.7062 8.38561 20.1809 7.32199 20.5883 5.72071C21.1918 3.34221 19.4198 1.20687 17.1634 1.20687C16.9181 1.20687 16.6835 1.23299 16.4551 1.27982C16.4238 1.28703 16.3907 1.30144 16.3728 1.32935C16.3513 1.36358 16.3674 1.40951 16.3889 1.43923C17.0667 2.39477 17.4571 3.56016 17.4571 4.8102ZM20.1782 10.0135C21.2823 10.2306 22.0084 10.6737 22.3093 11.3176C22.5636 11.8463 22.5636 12.4596 22.3093 12.9873C21.849 13.9861 20.3654 14.3067 19.7887 14.3896C19.6696 14.4076 19.5738 14.304 19.5864 14.1843C19.8809 11.4167 17.5377 10.1045 16.9315 9.8028C16.9055 9.78929 16.9002 9.76858 16.9028 9.75597C16.9046 9.74697 16.9154 9.73256 16.9351 9.72985C18.2468 9.70554 19.6571 9.88566 20.1782 10.0135ZM5.93711 8.34229C6.10186 8.33779 6.26304 8.32338 6.42063 8.29546C6.53434 8.27564 6.59165 8.14686 6.52718 8.05139C5.9004 7.12377 5.54313 6.00792 5.54313 4.81011C5.54313 3.56007 5.93353 2.39468 6.61135 1.43914C6.63284 1.40942 6.64806 1.36349 6.62746 1.32926C6.60956 1.30225 6.57553 1.28694 6.54509 1.27973C6.31586 1.2329 6.08127 1.20678 5.83593 1.20678C3.57951 1.20678 1.80751 3.34212 2.41191 5.72062C2.81932 7.3219 4.29405 8.38552 5.93711 8.34229ZM6.09694 9.75543C6.09962 9.76894 6.09425 9.78875 6.06918 9.80316C5.4621 10.1049 3.11883 11.4171 3.41342 14.1837C3.42595 14.3044 3.33104 14.4071 3.21195 14.39C2.63531 14.3071 1.15163 13.9865 0.691392 12.9877C0.436203 12.4591 0.436203 11.8466 0.691392 11.318C0.992248 10.6741 1.71752 10.231 2.82156 10.013C3.34358 9.88602 4.75294 9.7059 6.0656 9.73022C6.0853 9.73292 6.09515 9.74733 6.09694 9.75543Z" fill="#CACACA"/>
</svg>
