<svg width="25" height="25" viewBox="0 0 25 25" fill="none" xmlns="http://www.w3.org/2000/svg">
<g id="Iconly/Bulk/Chart">
<g id="Chart">
<path id="Fill 1" opacity="0.4" d="M17.3416 2.604H7.99935C4.5949 2.604 2.66602 4.53289 2.66602 7.93734V17.2707C2.66602 20.6751 4.5949 22.604 7.99935 22.604H17.3416C20.746 22.604 22.666 20.6751 22.666 17.2707V7.93734C22.666 4.53289 20.746 2.604 17.3416 2.604Z" fill="white"/>
<path id="Fill 4" d="M8.03467 9.97314C7.58134 9.97314 7.20801 10.3465 7.20801 10.8087V17.6798C7.20801 18.1331 7.58134 18.5065 8.03467 18.5065C8.4969 18.5065 8.87023 18.1331 8.87023 17.6798V10.8087C8.87023 10.3465 8.4969 9.97314 8.03467 9.97314Z" fill="white"/>
<path id="Fill 6" d="M12.7014 6.69287C12.2481 6.69287 11.8748 7.0662 11.8748 7.52843V17.6795C11.8748 18.1329 12.2481 18.5062 12.7014 18.5062C13.1636 18.5062 13.537 18.1329 13.537 17.6795V7.52843C13.537 7.0662 13.1636 6.69287 12.7014 6.69287Z" fill="white"/>
<path id="Fill 8" d="M17.306 13.5996C16.8438 13.5996 16.4705 13.9729 16.4705 14.4352V17.6796C16.4705 18.1329 16.8438 18.5063 17.2971 18.5063C17.7593 18.5063 18.1327 18.1329 18.1327 17.6796V14.4352C18.1327 13.9729 17.7593 13.5996 17.306 13.5996Z" fill="white"/>
</g>
</g>
</svg>
