<svg width="24" height="25" viewBox="0 0 24 25" fill="none" xmlns="http://www.w3.org/2000/svg">
<path fill-rule="evenodd" clip-rule="evenodd" d="M16.1583 8.26142C16.1583 10.6111 14.2851 12.4952 11.949 12.4952C9.61292 12.4952 7.73974 10.6111 7.73974 8.26142C7.73974 5.91083 9.61292 4.02856 11.949 4.02856C14.2851 4.02856 16.1583 5.91083 16.1583 8.26142ZM11.949 20.0286C8.51785 20.0286 5.58809 19.4846 5.58809 17.3087C5.58809 15.132 8.49904 14.5682 11.949 14.5682C15.3802 14.5682 18.31 15.1122 18.31 17.2889C18.31 19.4648 15.399 20.0286 11.949 20.0286ZM17.9571 8.33779C17.9571 9.53559 17.5998 10.6514 16.973 11.5791C16.9086 11.6745 16.9659 11.8033 17.0796 11.8231C17.2363 11.8502 17.3984 11.8655 17.5631 11.87C19.2062 11.9132 20.6809 10.8496 21.0883 9.2483C21.6918 6.8698 19.9198 4.73446 17.6634 4.73446C17.4181 4.73446 17.1835 4.76058 16.9551 4.80741C16.9238 4.81461 16.8907 4.82902 16.8728 4.85694C16.8513 4.89117 16.8674 4.9371 16.8889 4.96682C17.5667 5.92236 17.9571 7.08775 17.9571 8.33779ZM20.6782 13.5411C21.7823 13.7582 22.5084 14.2013 22.8093 14.8452C23.0636 15.3739 23.0636 15.9872 22.8093 16.5149C22.349 17.5137 20.8654 17.8343 20.2887 17.9172C20.1696 17.9352 20.0738 17.8316 20.0864 17.7118C20.3809 14.9443 18.0377 13.6321 17.4315 13.3304C17.4055 13.3169 17.4002 13.2962 17.4028 13.2836C17.4046 13.2746 17.4154 13.2601 17.4351 13.2574C18.7468 13.2331 20.1571 13.4132 20.6782 13.5411ZM6.43711 11.8699C6.60186 11.8654 6.76304 11.851 6.92063 11.823C7.03434 11.8032 7.09165 11.6744 7.02718 11.579C6.4004 10.6514 6.04313 9.5355 6.04313 8.3377C6.04313 7.08766 6.43353 5.92227 7.11135 4.96673C7.13284 4.93701 7.14806 4.89108 7.12746 4.85685C7.10956 4.82983 7.07553 4.81452 7.04509 4.80732C6.81586 4.76049 6.58127 4.73437 6.33593 4.73437C4.07951 4.73437 2.30751 6.86971 2.91191 9.24821C3.31932 10.8495 4.79405 11.9131 6.43711 11.8699ZM6.59694 13.283C6.59962 13.2965 6.59425 13.3163 6.56918 13.3308C5.9621 13.6325 3.61883 14.9446 3.91342 17.7113C3.92595 17.832 3.83104 17.9347 3.71195 17.9175C3.13531 17.8347 1.65163 17.5141 1.19139 16.5153C0.936203 15.9866 0.936203 15.3742 1.19139 14.8456C1.49225 14.2016 2.21752 13.7585 3.32156 13.5406C3.84358 13.4136 5.25294 13.2335 6.5656 13.2578C6.5853 13.2605 6.59515 13.2749 6.59694 13.283Z" fill="white"/>
</svg>
