<svg width="23" height="25" viewBox="0 0 23 25" fill="none" xmlns="http://www.w3.org/2000/svg">
<path d="M18.8638 22.7402H14.3638C13.6733 22.7402 13.1138 22.1664 13.1138 21.4582V16.8428C13.1138 16.2761 12.6663 15.8172 12.1138 15.8172H10.1138C9.56127 15.8172 9.11377 16.2761 9.11377 16.8428V21.4582C9.11377 22.1664 8.55427 22.7402 7.86377 22.7402H3.36377C2.67327 22.7402 2.11377 22.1664 2.11377 21.4582V11.67C2.11377 10.491 2.64077 9.37716 3.54327 8.64793L10.6493 2.90485C10.9218 2.68536 11.3058 2.68536 11.5778 2.90485L18.6848 8.64793C19.5873 9.37716 20.1138 10.4905 20.1138 11.669V21.4582C20.1138 22.1664 19.5543 22.7402 18.8638 22.7402Z" fill="#CACACA"/>
</svg>
