<svg width="24" height="25" viewBox="0 0 24 25" fill="none" xmlns="http://www.w3.org/2000/svg">
<path fill-rule="evenodd" clip-rule="evenodd" d="M16.3034 2.79055H7.65443C4.63943 2.79055 2.75043 4.92455 2.75043 7.94455V16.0936C2.75043 19.1136 4.63143 21.2476 7.65443 21.2476H16.3024C19.3264 21.2476 21.2074 19.1136 21.2074 16.0936V7.94455C21.2074 4.92455 19.3264 2.79055 16.3034 2.79055Z" stroke="#209FA6" stroke-width="1.5" stroke-linecap="round" stroke-linejoin="round"/>
<path fill-rule="evenodd" clip-rule="evenodd" d="M10.7033 8.82576C10.7033 9.84476 9.87633 10.6718 8.85733 10.6718C7.83933 10.6718 7.01233 9.84476 7.01233 8.82576C7.01233 7.80676 7.83933 6.97976 8.85733 6.97976C9.87633 6.97976 10.7033 7.80676 10.7033 8.82576Z" stroke="#209FA6" stroke-width="1.5" stroke-linecap="round" stroke-linejoin="round"/>
<path d="M21.2068 14.9908C20.2128 14.1258 19.3478 13.0848 18.2078 12.3978C17.0658 11.7108 15.8388 12.1348 15.0468 13.1598C14.2818 14.1508 13.8038 15.4838 12.6488 16.1088C11.2258 16.8798 10.3898 15.6368 9.20276 15.1388C7.87776 14.5838 6.87176 15.5818 6.09776 16.5408C5.32276 17.5008 4.53776 18.4508 3.74976 19.4008" stroke="#209FA6" stroke-width="1.5" stroke-linecap="round" stroke-linejoin="round"/>
</svg>
