<svg width="17" height="15" viewBox="0 0 17 15" fill="none" xmlns="http://www.w3.org/2000/svg">
<path d="M14.7616 2.26549C14.3998 1.90353 13.9702 1.61641 13.4975 1.42051C13.0247 1.22461 12.5179 1.12378 12.0062 1.12378C11.4944 1.12378 10.9877 1.22461 10.5149 1.42051C10.0421 1.61641 9.61254 1.90353 9.25076 2.26549L8.49992 3.01632L7.74909 2.26549C7.01831 1.53471 6.02715 1.12416 4.99367 1.12416C3.96019 1.12416 2.96904 1.53471 2.23825 2.26549C1.50747 2.99627 1.09692 3.98742 1.09692 5.02091C1.09692 6.05439 1.50747 7.04554 2.23825 7.77632L2.98909 8.52716L8.49992 14.038L14.0108 8.52716L14.7616 7.77632C15.1235 7.41454 15.4107 6.98498 15.6066 6.5122C15.8025 6.03942 15.9033 5.53267 15.9033 5.02091C15.9033 4.50914 15.8025 4.0024 15.6066 3.52961C15.4107 3.05683 15.1235 2.62727 14.7616 2.26549Z" fill="white" stroke="white" stroke-width="0.796875" stroke-linecap="round" stroke-linejoin="round"/>
</svg>
