<svg width="25" height="25" viewBox="0 0 25 25" fill="none" xmlns="http://www.w3.org/2000/svg">
<g id="Iconly/Bulk/Send">
<g id="Send">
<path id="Fill 1" d="M22.2531 3.4367C21.7531 2.9257 21.0131 2.7367 20.3231 2.9367L4.2331 7.5857C3.5051 7.7877 2.9891 8.3647 2.8501 9.0967C2.7081 9.8427 3.2041 10.7907 3.8521 11.1867L8.8831 14.2587C9.3991 14.5747 10.0651 14.4957 10.4921 14.0677L16.2531 8.3067C16.5431 8.0057 17.0231 8.0057 17.3131 8.3067C17.6031 8.5957 17.6031 9.0667 17.3131 9.3667L11.5421 15.1277C11.1141 15.5557 11.0341 16.2197 11.3491 16.7367L14.4231 21.7867C14.7831 22.3857 15.4031 22.7267 16.0831 22.7267C16.1631 22.7267 16.2531 22.7267 16.3331 22.7157C17.1131 22.6167 17.7331 22.0857 17.9631 21.3357L22.7331 5.3667C22.9431 4.6867 22.7531 3.9467 22.2531 3.4367Z" fill="white"/>
<path id="Combined Shape" opacity="0.4" fill-rule="evenodd" clip-rule="evenodd" d="M3.83618 17.6663C3.64418 17.6663 3.45218 17.5933 3.30618 17.4463C3.01318 17.1533 3.01318 16.6793 3.30618 16.3863L4.67118 15.0203C4.96418 14.7283 5.43918 14.7283 5.73218 15.0203C6.02418 15.3133 6.02418 15.7883 5.73218 16.0813L4.36618 17.4463C4.22018 17.5933 4.02818 17.6663 3.83618 17.6663ZM7.59738 18.8587C7.40538 18.8587 7.21338 18.7857 7.06738 18.6387C6.77438 18.3457 6.77438 17.8717 7.06738 17.5787L8.43238 16.2127C8.72538 15.9207 9.20038 15.9207 9.49338 16.2127C9.78538 16.5057 9.78538 16.9807 9.49338 17.2737L8.12738 18.6387C7.98138 18.7857 7.78938 18.8587 7.59738 18.8587ZM7.85108 22.4267C7.99708 22.5737 8.18908 22.6467 8.38108 22.6467C8.57308 22.6467 8.76508 22.5737 8.91108 22.4267L10.2771 21.0617C10.5691 20.7687 10.5691 20.2937 10.2771 20.0007C9.98408 19.7087 9.50908 19.7087 9.21608 20.0007L7.85108 21.3667C7.55808 21.6597 7.55808 22.1337 7.85108 22.4267Z" fill="white"/>
</g>
</g>
</svg>
