<svg width="24" height="25" viewBox="0 0 24 25" fill="none" xmlns="http://www.w3.org/2000/svg">
<g clip-path="url(#clip0_96_1441)">
<path d="M12 0.0402527C5.38293 0.0402527 0 5.42319 0 12.0403C0 18.6573 5.38293 24.0403 12 24.0403C18.6171 24.0403 24 18.6573 24 12.0403C24 5.42319 18.6171 0.0402527 12 0.0402527Z" fill="#2196F3"/>
<path d="M18.0821 9.49728L11.582 15.9972C11.387 16.1922 11.131 16.2903 10.8751 16.2903C10.6191 16.2903 10.3631 16.1922 10.1681 15.9972L6.91815 12.7472C6.52704 12.3563 6.52704 11.7242 6.91815 11.3333C7.30908 10.9422 7.94098 10.9422 8.33209 11.3333L10.8751 13.8763L16.6681 8.08334C17.0591 7.69223 17.691 7.69223 18.0821 8.08334C18.473 8.47427 18.473 9.10617 18.0821 9.49728Z" fill="#FAFAFA"/>
</g>
<defs>
<clipPath id="clip0_96_1441">
<rect width="24" height="24" fill="white" transform="translate(0 0.0402527)"/>
</clipPath>
</defs>
</svg>
